<svg width="266" height="253" viewBox="0 0 266 253" fill="none" xmlns="http://www.w3.org/2000/svg">
<path d="M87.4365 123.212C94.8572 117.02 105.893 118.016 112.085 125.436C118.277 132.857 117.281 143.893 109.861 150.085C102.44 156.277 91.4044 155.281 85.2121 147.861C79.0198 140.44 80.0157 129.404 87.4365 123.212Z" fill="#3A446A"/>
<path d="M162.436 123.212C169.857 117.02 180.893 118.016 187.085 125.436C193.277 132.857 192.281 143.893 184.861 150.085C177.44 156.277 166.404 155.281 160.212 147.861C154.02 140.44 155.016 129.404 162.436 123.212Z" fill="#3A446A"/>
<path d="M200.436 84.2121C207.857 78.0198 218.893 79.0157 225.085 86.4365C231.277 93.8572 230.281 104.893 222.861 111.085C215.44 117.277 204.404 116.281 198.212 108.861C192.02 101.44 193.016 90.4044 200.436 84.2121Z" fill="#3A446A"/>
<path d="M166.436 50.2121C173.857 44.0198 184.893 45.0157 191.085 52.4365C197.277 59.8572 196.281 70.8928 188.861 77.085C181.44 83.2773 170.404 82.2814 164.212 74.8607C158.02 67.4399 159.016 56.4044 166.436 50.2121Z" fill="#3A446A"/>
<path d="M162.436 123.212C169.857 117.02 180.893 118.016 187.085 125.436C193.277 132.857 192.281 143.893 184.861 150.085C177.44 156.277 166.404 155.281 160.212 147.861C154.02 140.44 155.016 129.404 162.436 123.212Z" fill="#3A446A"/>
<path d="M87.4365 196.212C94.8572 190.02 105.893 191.016 112.085 198.436C118.277 205.857 117.281 216.893 109.861 223.085C102.44 229.277 91.4044 228.281 85.2121 220.861C79.0198 213.44 80.0157 202.404 87.4365 196.212Z" fill="#3A446A"/>
<path d="M50.4365 157.212C57.8572 151.02 68.8927 152.016 75.085 159.436C81.2773 166.857 80.2814 177.893 72.8607 184.085C65.4399 190.277 54.4044 189.281 48.2121 181.861C42.0198 174.44 43.0157 163.404 50.4365 157.212Z" fill="#3A446A"/>
<path d="M197.436 159.212C204.857 153.02 215.893 154.016 222.085 161.436C228.277 168.857 227.281 179.893 219.861 186.085C212.44 192.277 201.404 191.281 195.212 183.861C189.02 176.44 190.016 165.404 197.436 159.212Z" fill="#3A446A"/>
<path d="M125.436 157.212C132.857 151.02 143.893 152.016 150.085 159.436C156.277 166.857 155.281 177.893 147.861 184.085C140.44 190.277 129.404 189.281 123.212 181.861C117.02 174.44 118.016 163.404 125.436 157.212Z" fill="#3A446A"/>
<path d="M163.436 194.212C170.857 188.02 181.893 189.016 188.085 196.436C194.277 203.857 193.281 214.893 185.861 221.085C178.44 227.277 167.404 226.281 161.212 218.861C155.02 211.44 156.016 200.404 163.436 194.212Z" fill="#3A446A"/>
<path d="M125.436 85.2121C132.857 79.0198 143.893 80.0157 150.085 87.4365C156.277 94.8572 155.281 105.893 147.861 112.085C140.44 118.277 129.404 117.281 123.212 109.861C117.02 102.44 118.016 91.4044 125.436 85.2121Z" fill="#3A446A"/>
<path d="M50.4365 85.2121C57.8572 79.0198 68.8927 80.0157 75.085 87.4365C81.2773 94.8572 80.2814 105.893 72.8607 112.085C65.4399 118.277 54.4044 117.281 48.2121 109.861C42.0198 102.44 43.0157 91.4044 50.4365 85.2121Z" fill="#3A446A"/>
<path d="M87.4365 50.2121C94.8572 44.0198 105.893 45.0157 112.085 52.4365C118.277 59.8572 117.281 70.8928 109.861 77.085C102.44 83.2773 91.4044 82.2814 85.2121 74.8607C79.0198 67.4399 80.0157 56.4044 87.4365 50.2121Z" fill="#3A446A"/>
</svg>
